HIERARCHY
ROOT pelvis
{
  OFFSET 0 100 0
  CHANNELS 6 Xposition Yposition Zposition Zrotation Xrotation Yrotation
  JOINT pelvis_right_femur
  {
    OFFSET -10.78128 -3.44521 -0.5502486
    CHANNELS 3 Zrotation Xrotation Yrotation
    JOINT right_femur_tibia
    {
      OFFSET -0.8047443 -44.0398 -0.1307829
      CHANNELS 3 Zrotation Xrotation Yrotation
      JOINT right_tibia_foot
      {
        OFFSET 3.006224 -47.83518 -5
        CHANNELS 3 Zrotation Xrotation Yrotation
        End Site
        {
          OFFSET 0 -5 15
        }
      }
    }
  }
  JOINT pelvis_left_femur
  {
    OFFSET 10.78128 -3.44521 -0.5502486
    CHANNELS 3 Zrotation Xrotation Yrotation
    JOINT left_femur_tibia
    {
      OFFSET 0.8047443 -44.0398 -0.1307829
      CHANNELS 3 Zrotation Xrotation Yrotation
      JOINT left_tibia_foot
      {
        OFFSET -4.370144 -48.10324 -4.275266
        CHANNELS 3 Zrotation Xrotation Yrotation
        End Site
        {
          OFFSET 0 -5 15
        }
      }
    }
  }
  JOINT pelvis_spine1
  {
    OFFSET 0 6.468898 -3.129235
    CHANNELS 3 Zrotation Xrotation Yrotation
    JOINT spine1
    {
      OFFSET 0 23.15396 4.99043
      CHANNELS 3 Zrotation Xrotation Yrotation
      JOINT spine2
      {
        OFFSET 0 20.79997 -5.064912
        CHANNELS 3 Zrotation Xrotation Yrotation
        JOINT neck
        {
          OFFSET 0 14.38658 9.616178
          CHANNELS 3 Zrotation Xrotation Yrotation
          End Site
          {
            OFFSET 0 20 0
          }
        }
      }
      JOINT right_manubrium
      {
        OFFSET -5.722621 16.35077 3.967754
        CHANNELS 3 Zrotation Xrotation Yrotation
        JOINT right_clavicle
        {
          OFFSET -13.16364 1.694482 -4.693211
          CHANNELS 3 Zrotation Xrotation Yrotation
          JOINT right_humerus
          {
            OFFSET -28.5034 -0.3100689 -2.792744
            CHANNELS 3 Zrotation Xrotation Yrotation
            JOINT right_radius
            {
              OFFSET -25.15693 0.02248979 -1.271978
              CHANNELS 3 Zrotation Xrotation Yrotation
              End Site
              {
                OFFSET -15 0 0
              }
            }
          }
        }
      }
      JOINT left_manubrium
      {
        OFFSET 5.722621 16.35077 3.967754
        CHANNELS 3 Zrotation Xrotation Yrotation
        JOINT left_clavicle
        {
          OFFSET 13.16364 1.694482 -4.693211
          CHANNELS 3 Zrotation Xrotation Yrotation
          JOINT left_humerus
          {
            OFFSET 29.39168 -1.063119 -2.237045
            CHANNELS 3 Zrotation Xrotation Yrotation
            JOINT left_radius
            {
              OFFSET 24.59957 -0.9528479 0.9047498
              CHANNELS 3 Zrotation Xrotation Yrotation
              End Site
              {
                OFFSET 15 -0 -0
              }
            }
          }
        }
      }
    }
  }
}
MOTION
Frames: 19
Frame Time: 0.0416666666667
0 103.5113 0 0.9339968 0.2797863 -0.1505553 4.618481 -17.02774 11.52265 -0 40.95115 -0 -5.084722 -16.49847 -2.590174 -7.913106 8.691784 -23.32289 -0 5.940464 -0 16.41253 -11.8491 30.97358 -3.717247 -4.451431 5.833609 2.743773 10.99843 -7.834524 1.343805 21.26035 6.712434 2.751399 -26.46607 10.05636 6.6152 -21.54125 12.08198 86.1931 38.36102 -18.28761 -0 0 16.60637 -5.692366 8.012347 4.249984 5.724622 -19.43642 -1.069146 -92.53259 20.50858 21.69106 0 0 -15.26989 16.22956 13.16589 -4.038992
0.3896989 103.84 1.46843 0.7568475 0.7289057 -0.2566737 5.214178 -18.42854 12.00523 -0 40.48599 -0 -5.031576 -15.68912 -2.500486 -7.961804 8.729159 -23.3123 -0 5.627209 -0 16.7309 -12.1512 31.26047 -3.530256 -4.25158 6.013009 2.710826 11.04464 -7.78603 1.421541 21.03207 6.795882 2.819376 -26.94627 10.27134 6.551321 -21.78484 12.02144 86.49399 38.73544 -18.57247 -0 0 16.556 -5.160114 7.886113 4.041525 5.805861 -19.55029 -1.079155 -92.65499 20.87757 22.07285 0 0 -16.32396 16.2625 12.70259 -3.527907
0.7678166 103.7842 3.406855 0.5714964 1.349524 -0.2662256 5.643138 -22.87795 10.3777 -0 34.31683 -0 -5.06274 -12.92142 -1.956399 -7.627328 9.731162 -21.98955 -0 4.960362 -0 15.43427 -14.89567 29.54569 -3.508056 -3.467674 5.649444 2.779557 10.68097 -7.721989 1.567001 20.89535 6.800489 3.1133 -26.55479 10.10511 6.270186 -20.96261 11.78553 86.34754 38.02426 -18.90617 -0 0 15.7932 -6.005649 8.133469 4.192919 6.570372 -20.215 -1.312902 -91.83263 20.83339 20.58501 0 0 -18.13342 16.18863 12.8826 -3.739532
1.125925 103.4645 5.771072 0.3051499 1.915116 -0.1686631 6.113308 -26.49141 9.241148 -0 29.70418 -0 -5.127137 -10.61479 -1.599137 -7.303687 10.69598 -20.87004 -0 4.839932 -0 13.98383 -17.04107 27.91541 -3.35026 -2.830506 5.310877 2.836535 10.35054 -7.69063 1.669268 20.77819 6.837079 3.315238 -26.31951 10.02373 6.011533 -20.29215 11.5616 86.37914 37.4497 -19.35402 -0 0 15.0943 -6.516192 8.31593 4.251769 7.072996 -20.69751 -1.51542 -91.30968 21.24972 19.63795 0 0 -19.73397 15.67387 13.02342 -3.236895
1.459622 102.9492 8.574698 -0.008695622 2.447305 0.03509612 6.571915 -29.56875 8.227917 -0 25.7121 -0 -5.248942 -8.497694 -1.290616 -6.964408 11.66101 -19.75578 -0 5.24447 -0 12.36078 -18.75139 26.15474 -3.109158 -2.298773 4.943006 2.901713 10.05348 -7.695323 1.723343 20.6739 6.88938 3.472067 -26.11056 9.944494 5.771918 -19.64375 11.35715 86.48506 36.92456 -19.85027 -0 0 14.37815 -6.965803 8.500144 4.306658 7.444172 -21.09619 -1.715244 -90.86629 21.69763 18.86122 0 0 -21.10207 15.05006 13.0988 -2.603768
1.76517 102.3056 11.83912 -0.3807076 2.923559 0.3420175 7.019343 -32.08352 7.293419 -0 22.29364 -0 -5.437093 -6.591107 -1.043093 -6.582747 12.62457 -18.61838 -0 6.285769 -0 10.45006 -20.03831 24.17237 -2.778177 -1.859554 4.524981 2.976111 9.770289 -7.738207 1.730453 20.59511 6.950064 3.580269 -25.89823 9.855373 5.549134 -18.98142 11.16812 86.64729 36.40881 -20.38339 -0 0 13.6428 -7.391542 8.710445 4.368165 7.674065 -21.40187 -1.918129 -90.50752 22.22789 18.24369 0 0 -22.17959 14.23365 13.16165 -1.766134
2.041834 101.6106 15.59159 -0.8093842 3.325141 0.740746 7.4575 -33.92912 6.422453 -0 19.45781 -0 -5.708449 -4.922869 -0.8481955 -6.155538 13.53582 -17.43881 -0 8.127025 -0 8.27237 -20.79042 21.96435 -2.351046 -1.52228 4.063231 3.058199 9.515221 -7.820312 1.683805 20.54252 7.016239 3.639363 -25.67648 9.745048 5.349353 -18.30356 11.00361 86.86592 35.91427 -20.93691 -0 0 12.88541 -7.813445 8.953918 4.444658 7.753239 -21.61264 -2.12818 -90.22493 22.76642 17.77523 0 0 -22.89621 13.28149 13.18272 -0.8066831
2.292287 100.957 19.85856 -1.287577 3.614913 1.207697 7.885079 -34.92981 5.620951 -0 17.28435 -0 -6.08201 -3.562662 -0.7108428 -5.68112 14.30846 -16.20795 -0 11.00139 -0 5.86856 -20.86127 19.56057 -1.821475 -1.296244 3.575388 3.142463 9.304515 -7.938517 1.576679 20.52289 7.08307 3.645529 -25.43914 9.602163 5.180066 -17.61629 10.87491 87.14472 35.45467 -21.48921 -0 0 12.10978 -8.239329 9.23244 4.540117 7.659315 -21.71962 -2.34927 -90.02525 23.26186 17.46802 0 0 -23.16319 12.2299 13.13862 0.2253865
2.524258 100.4578 24.65314 -1.79058 3.738149 1.700236 8.29166 -34.84328 4.914804 -0 15.89395 -0 -6.573169 -2.617505 -0.6378733 -5.169417 14.78347 -14.93233 -0 15.19137 -0 3.354484 -20.07628 17.06346 -1.192897 -1.186546 3.106569 3.216929 9.16633 -8.080089 1.403185 20.54457 7.144619 3.598207 -25.18288 9.413492 5.053886 -16.94752 10.80038 87.48279 35.05831 -22.00269 -0 0 11.33912 -8.666768 9.537621 4.654841 7.367081 -21.71568 -2.585514 -89.92568 23.64923 17.35518 0 0 -22.88832 11.13725 12.99603 1.265671
2.751082 100.2425 29.95514 -2.264641 3.618738 2.150529 8.638996 -33.39974 4.332583 -0 15.38803 -0 -7.184802 -2.228065 -0.6397329 -4.643709 14.70514 -13.63701 -0 20.97546 -0 0.9134252 -18.30077 14.64469 -0.4929922 -1.176689 2.737139 3.259655 9.133532 -8.21381 1.165646 20.62207 7.189522 3.504518 -24.89723 9.161588 4.985588 -16.34527 10.80294 87.86004 34.75651 -22.41236 -0 0 10.62394 -9.089561 9.849146 4.786383 6.861004 -21.60285 -2.840625 -89.94857 23.8704 17.47729 0 0 -22.00792 10.07157 12.7326 2.251717
2.989606 100.4381 35.68438 -2.616525 3.171103 2.467037 8.842146 -30.39778 3.884718 -0 15.73978 -0 -7.89282 -2.537282 -0.7243613 -4.144275 13.70963 -12.37152 -0 28.48071 -0 -1.227949 -15.54978 12.52254 0.2060709 -1.207687 2.587028 3.235911 9.232038 -8.279889 0.8850114 20.77749 7.197248 3.386527 -24.55861 8.825368 4.986808 -15.8767 10.90468 88.21827 34.57679 -22.61521 -0 0 10.04938 -9.504028 10.13236 4.93272 6.15869 -21.40378 -3.114605 -90.10955 23.899 17.86106 0 0 -20.55424 9.101238 12.35644 3.140237
3.252694 101.1266 41.6794 -2.718105 2.331722 2.55601 8.765662 -25.86079 3.536584 -0 16.64535 -0 -8.634427 -3.619158 -0.8859398 -3.723961 11.38479 -11.20805 -0 37.42284 -0 -2.866942 -12.12669 10.90245 0.7692472 -1.167061 2.791695 3.101366 9.455776 -8.187798 0.6116768 21.04226 7.13465 3.284435 -24.1234 8.384801 5.053575 -15.6092 11.11273 88.44636 34.52989 -22.47019 -0 0 9.719163 -9.923825 10.34221 5.102709 5.340374 -21.16956 -3.395475 -90.39319 23.77673 18.4736 0 0 -18.73663 8.274481 11.93269 3.929887
3.537077 102.2852 47.70861 -2.445944 1.109289 2.36948 8.269803 -20.17532 3.198529 -0 17.4503 -0 -9.31384 -5.375138 -1.090547 -3.427477 7.456335 -10.22216 -0 46.8145 -0 -3.902232 -8.686909 9.92358 1.00856 -0.9212101 3.431493 2.819099 9.739521 -7.839921 0.4238346 21.45297 6.960406 3.246276 -23.53113 7.834165 5.149864 -15.5727 11.39906 88.39191 34.5984 -21.8251 -0 0 9.702248 -10.40118 10.43984 5.333552 4.563078 -20.96855 -3.646018 -90.72906 23.62656 19.17203 0 0 -16.95915 7.601048 11.59189 4.659633
3.816227 103.7423 53.53808 -1.758932 -0.3794868 1.953474 7.316627 -14.03738 2.758494 -0 17.34606 -0 -9.83534 -7.468363 -1.274729 -3.250326 2.0588 -9.446183 -0 54.92433 -0 -4.370687 -6.064515 9.668675 0.7597979 -0.4065065 4.435828 2.389594 9.964223 -7.190068 0.3977344 22.03111 6.646455 3.299409 -22.72782 7.202081 5.200823 -15.7289 11.69054 87.91785 34.72998 -20.57291 -0 0 9.972573 -11.04275 10.42053 5.700599 4.025013 -20.84489 -3.798049 -91.00275 23.58764 19.70888 0 0 -15.65746 7.055287 11.48076 5.352826
4.052829 105.2001 59.03054 -0.769044 -1.931449 1.438501 6.070241 -8.132105 2.165062 -0 15.85467 -0 -10.13616 -9.413039 -1.36748 -3.094538 -4.159793 -8.80942 -0 59.77554 -0 -4.417486 -4.840843 10.21323 0.0199848 0.2904321 5.557152 1.867614 10.02527 -6.300763 0.5545906 22.73966 6.214107 3.423642 -21.70993 6.562097 5.115685 -16.00415 11.89628 86.97263 34.83229 -18.70115 -0 0 10.4476 -11.99213 10.32931 6.292825 3.873983 -20.77085 -3.780603 -91.13468 23.67468 19.87154 0 0 -14.9847 6.599874 11.64563 5.948409
4.229487 106.3302 64.19593 0.268878 -3.323098 0.9586657 4.868126 -2.809042 1.499495 -0 13.19883 -0 -10.17655 -10.84837 -1.315579 -2.766211 -10.33694 -8.125363 -0 59.97948 -0 -4.223983 -4.9826 11.58117 -0.9723464 0.9747708 6.49161 1.335178 9.911009 -5.330257 0.8258837 23.44806 5.754218 3.557062 -20.56586 6.012146 4.834777 -16.38623 11.96614 85.60733 34.77398 -16.29094 -0 0 11.15452 -13.35488 10.22978 7.156506 4.119078 -20.64933 -3.580127 -91.18114 23.71692 19.70651 0 0 -14.65785 6.193387 11.9446 6.342605
4.37031 106.8798 69.15312 1.061695 -4.356929 0.5737025 4.042133 1.914088 0.927255 -0 10.1549 -0 -9.924805 -11.80253 -1.094791 -2.054746 -15.85429 -7.189121 -0 55.24908 -0 -3.950566 -5.918821 13.59068 -1.83847 1.476583 7.050691 0.8550176 9.684531 -4.447816 1.079436 23.97191 5.395353 3.630989 -19.47133 5.628388 4.360383 -16.96086 11.91866 83.94025 34.42681 -13.48801 -0 0 12.29601 -15.09611 10.13668 8.262049 4.619648 -20.37608 -3.266331 -91.32724 23.51998 19.57394 0 0 -14.19727 5.768777 12.12875 6.547657
4.529897 106.7336 74.05514 1.39869 -4.892193 0.2577927 3.743103 6.118223 0.5480171 -0 7.598069 -0 -9.404776 -12.68357 -0.7243748 -0.8684005 -20.45714 -5.944837 -0 46.37496 -0 -3.725819 -6.932104 15.80652 -2.26909 1.724988 7.212178 0.4569467 9.387768 -3.761518 1.195625 24.18853 5.231524 3.604303 -18.6038 5.427491 3.753048 -17.80339 11.80438 82.1273 33.7471 -10.49029 -0 0 14.0351 -17.0105 9.984564 9.52783 5.156341 -19.89833 -2.94237 -91.72889 23.08148 19.87823 0 0 -13.2925 5.243443 12.05856 6.752879
4.762274 105.9281 79.04349 1.224158 -4.906384 -0.0619513 3.888115 9.836829 0.3126565 -0 6.187718 -0 -8.73511 -13.97547 -0.2726136 0.6506267 -24.04194 -4.595417 -0 35.02724 -0 -3.642744 -7.475536 17.71373 -2.165527 1.724772 7.059721 0.1479251 9.00434 -3.301334 1.137876 24.12188 5.26902 3.487519 -18.01898 5.362577 3.116719 -18.84378 11.65388 80.34023 32.81625 -7.539057 -0 0 16.24063 -18.82356 9.679507 10.86122 5.532833 -19.22624 -2.679408 -92.36815 22.58428 20.73771 0 0 -11.92261 4.594576 11.83292 7.166201
